<svg width="115" height="37" viewBox="0 0 115 37" fill="none" xmlns="http://www.w3.org/2000/svg">
<path d="M43.1901 24.7656C46.803 24.7656 49.7318 21.8442 49.7318 18.2405C49.7318 14.6368 46.803 11.7155 43.1901 11.7155C39.5773 11.7155 36.6484 14.6368 36.6484 18.2405C36.6484 21.8442 39.5773 24.7656 43.1901 24.7656Z" fill="black"/>
<path d="M43.1901 21.2064C44.8323 21.2064 46.1635 19.8785 46.1635 18.2405C46.1635 16.6024 44.8323 15.2745 43.1901 15.2745C41.5478 15.2745 40.2166 16.6024 40.2166 18.2405C40.2166 19.8785 41.5478 21.2064 43.1901 21.2064Z" fill="white"/>
<path d="M108.458 24.7656C112.071 24.7656 115 21.8442 115 18.2405C115 14.6368 112.071 11.7155 108.458 11.7155C104.845 11.7155 101.917 14.6368 101.917 18.2405C101.917 21.8442 104.845 24.7656 108.458 24.7656Z" fill="black"/>
<path d="M108.458 21.2064C110.101 21.2064 111.432 19.8785 111.432 18.2405C111.432 16.6024 110.101 15.2745 108.458 15.2745C106.816 15.2745 105.485 16.6024 105.485 18.2405C105.485 19.8785 106.816 21.2064 108.458 21.2064Z" fill="white"/>
<path d="M0 0H6.61603V21.8737C6.61603 21.8737 8.99483 18.4629 10.6303 16.5351L23.9367 0H31.7421L18.064 17.2766L33.1545 37H25.4234L13.9011 21.8737L6.61603 30.6232V37H0V0Z" fill="black"/>
<path d="M60.7336 0H76.3445C86.9748 0 92.6244 6.3026 92.6244 14.0882C92.6244 21.8737 86.9748 28.1764 76.2702 28.1764H67.3497V37H60.7336V0ZM76.7162 22.4669C82.2915 22.4669 85.711 18.6854 85.711 14.0882C85.711 9.49098 82.2915 5.70942 76.7905 5.70942H67.3497V22.4669H76.7162Z" fill="black"/>
</svg>
